<?xml version="1.0" encoding="UTF-8"?>
<!-- Generator: visioncortex VTracer 0.6.12 -->
<svg version="1.1" xmlns="http://www.w3.org/2000/svg" viewBox="0 0 1254 1254" width="1254" height="1254">

<path d="M0,0 L5,2 L19,13 L37,27 L53,37 L72,49 L89,59 L106,70 L132,87 L148,97 L168,110 L185,121 L210,137 L229,149 L234,152 L249,166 L257,173 L269,170 L288,164 L308,161 L322,157 L359,149 L374,145 L402,139 L417,135 L424,136 L439,140 L454,143 L472,148 L484,150 L497,154 L528,161 L543,165 L553,167 L575,173 L580,173 L593,161 L601,153 L607,148 L613,146 L637,131 L660,116 L684,101 L706,87 L731,71 L753,57 L773,45 L788,35 L802,25 L814,15 L833,1 L837,0 L836,8 L832,18 L824,44 L818,63 L812,81 L808,94 L796,131 L792,144 L788,158 L781,180 L774,203 L768,222 L764,232 L753,245 L744,256 L746,262 L750,271 L769,310 L780,333 L796,367 L812,400 L815,409 L810,420 L792,464 L787,476 L779,495 L775,505 L772,512 L773,517 L784,542 L800,581 L806,596 L805,601 L783,615 L760,629 L738,643 L712,659 L694,670 L689,672 L686,681 L671,716 L654,755 L637,795 L636,798 L634,798 L627,790 L616,778 L605,766 L605,764 L603,764 L601,769 L588,789 L571,815 L556,838 L548,850 L534,871 L532,871 L529,862 L524,848 L519,836 L515,825 L513,825 L499,842 L491,852 L483,862 L472,876 L458,894 L447,908 L436,922 L424,937 L419,943 L414,938 L404,926 L393,912 L382,898 L368,880 L357,866 L344,850 L331,833 L324,825 L322,824 L321,830 L317,838 L312,853 L308,861 L304,871 L300,867 L288,848 L274,827 L255,798 L234,766 L230,768 L221,778 L207,793 L203,798 L201,798 L195,782 L183,755 L165,713 L150,678 L148,672 L126,659 L110,649 L91,637 L70,624 L50,612 L33,602 L30,601 L31,596 L43,568 L58,532 L65,516 L64,508 L53,483 L37,444 L23,410 L24,403 L37,377 L50,349 L64,320 L75,297 L87,272 L91,265 L94,256 L86,248 L79,240 L71,231 L67,213 L59,188 L55,175 L49,155 L44,139 L39,125 L34,108 L29,92 L24,78 L19,61 L7,24 L0,1 Z " fill="#2A1869" transform="translate(209,161)"/>
<path d="M0,0 L9,5 L29,18 L51,31 L68,42 L94,59 L110,69 L130,82 L147,93 L172,109 L191,121 L196,124 L211,138 L219,145 L231,142 L250,136 L270,133 L284,129 L321,121 L336,117 L364,111 L379,107 L386,108 L401,112 L416,115 L434,120 L446,122 L459,126 L490,133 L505,137 L515,139 L537,145 L542,145 L555,133 L563,125 L569,120 L575,118 L599,103 L622,88 L646,73 L668,59 L693,43 L715,29 L735,17 L750,7 L761,0 L759,4 L747,18 L740,27 L731,37 L719,51 L710,61 L701,72 L689,85 L680,96 L668,109 L659,120 L655,124 L657,129 L668,141 L675,149 L687,163 L700,178 L709,188 L714,194 L713,197 L681,218 L663,230 L619,259 L604,269 L589,279 L572,290 L557,299 L549,306 L539,316 L531,323 L524,330 L540,322 L564,309 L587,296 L611,283 L627,274 L648,262 L650,263 L654,273 L659,285 L664,298 L671,313 L682,339 L686,350 L690,358 L694,368 L698,379 L697,386 L692,399 L688,412 L683,424 L680,434 L675,446 L654,502 L651,509 L636,519 L614,534 L598,545 L570,564 L558,565 L478,567 L455,568 L427,573 L430,564 L441,538 L440,534 L392,486 L388,483 L389,478 L399,462 L416,434 L428,414 L445,386 L445,384 L437,391 L424,403 L417,410 L409,417 L390,436 L382,443 L379,443 L367,432 L357,423 L346,412 L338,405 L319,386 L316,385 L328,406 L345,434 L359,457 L373,480 L371,484 L320,535 L323,544 L333,568 L333,572 L320,571 L303,568 L194,567 L176,554 L157,541 L134,525 L110,509 L108,507 L100,483 L83,437 L63,383 L63,377 L66,372 L70,361 L75,349 L81,335 L87,322 L92,309 L104,280 L107,274 L111,263 L113,262 L140,277 L163,290 L186,303 L214,318 L230,327 L237,330 L222,315 L214,308 L205,299 L195,280 L183,259 L168,232 L154,207 L141,184 L128,161 L114,136 L108,126 L99,116 L90,105 L81,95 L74,87 L63,74 L50,59 L37,44 L27,33 L18,22 L6,9 L0,2 Z " fill="#2A1769" transform="translate(247,189)"/>
<path d="M0,0 L5,2 L19,13 L37,27 L49,41 L59,52 L68,63 L80,76 L89,87 L99,98 L108,109 L119,121 L128,132 L137,142 L146,153 L152,162 L165,186 L179,210 L192,234 L206,258 L219,282 L232,305 L245,328 L258,341 L266,348 L276,358 L274,359 L246,344 L220,330 L204,321 L183,309 L156,294 L150,291 L144,307 L137,322 L127,346 L124,355 L119,365 L111,384 L107,394 L103,403 L102,405 L103,414 L123,468 L144,525 L147,535 L163,546 L182,559 L205,575 L221,586 L232,594 L341,595 L371,600 L366,586 L357,565 L359,561 L410,510 L408,504 L398,488 L385,467 L366,435 L357,420 L353,413 L354,411 L364,420 L382,438 L390,445 L402,457 L410,464 L418,471 L425,465 L435,456 L453,438 L461,431 L470,422 L478,415 L484,410 L485,412 L469,439 L460,454 L443,482 L432,500 L427,508 L428,512 L436,519 L480,563 L479,568 L468,594 L466,598 L464,598 L464,605 L459,616 L454,628 L449,640 L444,653 L474,648 L507,642 L521,639 L540,636 L569,631 L577,631 L579,637 L582,660 L585,677 L587,688 L589,703 L596,745 L596,750 L590,749 L579,742 L553,727 L538,718 L519,707 L516,705 L515,722 L506,732 L495,746 L481,763 L472,775 L461,789 L445,810 L436,822 L424,838 L419,844 L414,839 L404,827 L395,815 L385,802 L375,789 L361,771 L351,758 L342,747 L331,733 L323,723 L323,704 L307,713 L292,722 L263,739 L243,751 L241,751 L242,738 L246,715 L250,690 L259,631 L260,629 L255,628 L249,625 L242,626 L214,642 L189,656 L180,661 L175,660 L165,650 L157,643 L140,627 L133,620 L125,613 L109,598 L94,584 L90,578 L84,561 L77,543 L71,526 L69,521 L63,522 L65,516 L64,508 L53,483 L37,444 L23,410 L24,403 L37,377 L50,349 L64,320 L75,297 L87,272 L91,265 L94,256 L86,248 L79,240 L71,231 L67,213 L59,188 L55,175 L49,155 L44,139 L39,125 L34,108 L29,92 L24,78 L19,61 L7,24 L0,1 Z " fill="#110D28" transform="translate(209,161)"/>
<path d="M0,0 L12,6 L35,19 L58,32 L85,47 L117,64 L134,74 L146,82 L167,96 L182,106 L199,117 L205,125 L222,154 L239,182 L252,203 L261,218 L259,222 L208,273 L211,282 L221,306 L221,310 L208,309 L191,306 L82,305 L64,292 L45,279 L22,263 L-2,247 L-4,245 L-12,221 L-29,175 L-49,121 L-49,115 L-46,110 L-42,99 L-37,87 L-31,73 L-25,60 L-20,47 L-8,18 L-5,12 L-1,1 Z " fill="#F7EFEB" transform="translate(359,451)"/>
<path d="M0,0 L2,1 L6,11 L11,23 L16,36 L23,51 L34,77 L38,88 L42,96 L46,106 L50,117 L49,124 L44,137 L40,150 L35,162 L32,172 L27,184 L6,240 L3,247 L-12,257 L-34,272 L-50,283 L-78,302 L-90,303 L-170,305 L-193,306 L-221,311 L-218,302 L-207,276 L-208,272 L-256,224 L-260,221 L-259,216 L-249,200 L-232,172 L-220,152 L-203,124 L-197,116 L-181,106 L-148,84 L-127,70 L-116,64 L-93,52 L-70,39 L-41,23 L-12,7 Z " fill="#F7EFEB" transform="translate(895,451)"/>
<path d="M0,0 L5,2 L19,13 L37,27 L49,41 L59,52 L68,63 L80,76 L89,87 L99,98 L108,109 L119,121 L128,132 L137,142 L146,153 L152,162 L165,186 L179,210 L192,234 L206,258 L219,282 L232,305 L245,328 L258,341 L266,348 L276,358 L274,359 L246,344 L220,330 L204,321 L183,309 L156,294 L150,291 L144,307 L137,322 L127,346 L124,355 L119,365 L111,384 L107,394 L103,403 L102,405 L103,414 L123,468 L144,525 L147,535 L163,546 L182,559 L205,575 L221,586 L232,594 L341,595 L370,600 L372,602 L345,605 L338,607 L328,608 L326,609 L316,610 L226,610 L208,599 L193,589 L176,578 L157,566 L140,555 L124,545 L120,542 L116,525 L111,507 L105,488 L101,475 L97,459 L93,446 L90,437 L88,428 L83,412 L83,406 L103,365 L115,341 L118,335 L101,348 L84,361 L70,372 L54,385 L45,392 L29,405 L24,407 L25,401 L37,377 L50,349 L64,320 L75,297 L87,272 L91,265 L94,256 L86,248 L79,240 L71,231 L67,213 L59,188 L55,175 L49,155 L44,139 L39,125 L34,108 L29,92 L24,78 L19,61 L7,24 L0,1 Z " fill="#110D26" transform="translate(209,161)"/>
<path d="M0,0 L12,1 L22,3 L53,9 L72,12 L80,14 L125,22 L134,23 L140,35 L150,59 L158,78 L159,79 L170,53 L182,24 L188,22 L214,18 L247,12 L261,9 L280,6 L309,1 L317,1 L319,7 L322,30 L325,47 L327,58 L329,73 L336,115 L336,120 L330,119 L319,112 L293,97 L278,88 L259,77 L256,75 L255,92 L246,102 L235,116 L221,133 L212,145 L201,159 L185,180 L176,192 L164,208 L159,214 L154,209 L144,197 L135,185 L125,172 L115,159 L101,141 L91,128 L82,117 L71,103 L63,93 L63,74 L47,83 L32,92 L3,109 L-17,121 L-19,121 L-18,108 L-14,85 L-10,60 L-1,1 Z " fill="#402196" transform="translate(469,791)"/>
<path d="M0,0 L0,3 L-13,18 L-20,27 L-29,37 L-41,51 L-50,61 L-59,72 L-71,85 L-80,96 L-92,109 L-101,120 L-105,124 L-103,129 L-92,141 L-85,149 L-73,163 L-60,178 L-51,188 L-46,194 L-47,197 L-79,218 L-97,230 L-141,259 L-156,269 L-171,279 L-188,290 L-203,299 L-211,306 L-221,316 L-229,323 L-236,330 L-236,332 L-244,336 L-260,347 L-304,376 L-309,378 L-308,373 L-302,360 L-287,327 L-268,287 L-256,262 L-242,233 L-234,217 L-230,207 L-214,173 L-202,147 L-191,123 L-191,120 L-185,118 L-161,103 L-138,88 L-114,73 L-92,59 L-67,43 L-45,29 L-25,17 L-10,7 Z " fill="#693AD7" transform="translate(1007,189)"/>
<path d="M0,0 L2,0 L1,8 L-3,18 L-11,44 L-17,63 L-23,81 L-27,94 L-39,131 L-43,144 L-47,158 L-54,180 L-61,203 L-67,222 L-71,232 L-82,245 L-91,256 L-89,262 L-85,271 L-66,310 L-55,333 L-39,367 L-23,400 L-21,405 L-22,408 L-35,398 L-51,385 L-68,372 L-83,360 L-96,350 L-106,342 L-115,335 L-114,338 L-110,347 L-88,391 L-81,406 L-82,416 L-86,429 L-90,443 L-95,461 L-101,480 L-105,494 L-111,515 L-117,536 L-119,541 L-129,548 L-154,564 L-177,579 L-201,594 L-218,605 L-227,611 L-251,611 L-336,607 L-351,604 L-371,602 L-371,598 L-369,599 L-369,600 L-342,595 L-286,593 L-239,592 L-227,591 L-199,572 L-183,561 L-161,546 L-146,536 L-131,495 L-122,471 L-117,459 L-111,441 L-107,432 L-103,419 L-100,411 L-101,403 L-105,395 L-111,379 L-115,371 L-121,355 L-131,332 L-136,320 L-140,312 L-144,301 L-148,291 L-160,297 L-176,306 L-194,316 L-221,331 L-248,346 L-272,359 L-274,358 L-260,344 L-252,337 L-242,327 L-228,319 L-205,304 L-190,294 L-146,265 L-131,255 L-119,247 L-84,224 L-86,220 L-95,210 L-104,199 L-115,187 L-124,176 L-135,164 L-143,154 L-141,150 L-131,139 L-124,131 L-112,117 L-103,107 L-94,96 L-83,84 L-76,76 L-65,63 L-55,52 L-48,43 L-37,30 L-30,22 L-14,10 Z " fill="#120E27" transform="translate(1044,161)"/>
<path d="M0,0 L3,1 L7,13 L12,25 L16,37 L19,45 L26,62 L36,72 L44,79 L51,86 L59,93 L75,108 L82,115 L90,122 L107,138 L110,140 L115,139 L144,123 L168,109 L177,104 L184,105 L193,109 L190,130 L184,170 L180,195 L174,231 L198,217 L220,204 L249,187 L255,184 L255,203 L248,217 L241,233 L237,244 L234,250 L235,255 L238,262 L254,297 L254,301 L256,301 L254,310 L250,318 L245,333 L241,341 L237,351 L233,347 L221,328 L207,307 L188,278 L167,246 L163,248 L154,258 L140,273 L136,278 L134,278 L128,262 L116,235 L98,193 L83,158 L81,152 L59,139 L43,129 L24,117 L3,104 L-17,92 L-34,82 L-37,81 L-36,76 L-24,48 L-9,12 L-4,2 Z " fill="#100D25" transform="translate(276,681)"/>
<path d="M0,0 L9,5 L29,18 L51,31 L68,42 L94,59 L110,69 L130,82 L147,93 L172,109 L191,121 L194,123 L204,146 L219,178 L231,204 L248,240 L252,250 L264,275 L267,282 L284,318 L296,344 L304,361 L307,368 L311,376 L310,379 L294,369 L282,361 L258,345 L246,337 L237,332 L235,328 L222,315 L214,308 L205,299 L195,280 L183,259 L168,232 L154,207 L141,184 L128,161 L114,136 L108,126 L99,116 L90,105 L81,95 L74,87 L63,74 L50,59 L37,44 L27,33 L18,22 L6,9 L0,2 Z " fill="#6839D6" transform="translate(247,189)"/>
<path d="M0,0 L1,0 L2,19 L15,35 L23,45 L35,60 L50,80 L62,95 L71,107 L85,125 L96,139 L101,134 L111,121 L126,101 L139,84 L150,70 L160,57 L173,41 L181,31 L186,25 L192,21 L193,118 L182,132 L169,148 L161,158 L150,172 L136,190 L125,204 L114,218 L102,233 L97,239 L92,234 L82,222 L71,208 L60,194 L46,176 L35,162 L22,146 L9,129 L2,121 L0,119 L1,117 L-1,117 L-6,104 L-19,76 L-22,70 L-21,63 L-16,53 L-11,40 L-3,24 L-1,19 Z " fill="#24165B" transform="translate(531,865)"/>
<path d="M0,0 L12,1 L22,3 L53,9 L72,12 L80,14 L125,22 L134,23 L140,35 L150,59 L158,78 L158,213 L153,208 L141,193 L131,180 L119,164 L107,149 L98,137 L87,123 L74,107 L63,93 L63,74 L47,83 L32,92 L3,109 L-17,121 L-19,121 L-18,108 L-14,85 L-10,60 L-1,1 Z " fill="#582DBC" transform="translate(469,791)"/>
<path d="M0,0 L2,0 L0,6 L-25,56 L-32,71 L-31,80 L-26,96 L-24,104 L-19,122 L-17,127 L-14,140 L-9,156 L-4,172 L2,195 L5,207 L24,219 L43,231 L60,242 L80,255 L105,271 L127,285 L129,289 L105,303 L82,316 L64,326 L59,325 L49,315 L41,308 L24,292 L17,285 L9,278 L-7,263 L-22,249 L-26,243 L-32,226 L-39,208 L-45,191 L-47,186 L-53,187 L-51,181 L-52,173 L-63,148 L-79,109 L-93,75 L-93,70 L-92,72 L-81,64 L-68,53 L-55,43 L-39,30 L-23,18 L-5,4 Z " fill="#2B176B" transform="translate(325,496)"/>
<path d="M0,0 L8,1 L47,11 L59,14 L69,16 L79,18 L79,20 L63,27 L48,34 L46,34 L46,43 L38,107 L35,126 L15,140 L-2,152 L-16,162 L-85,162 L-100,148 L-108,141 L-118,132 L-132,120 L-139,114 L-135,110 L-109,94 L-85,79 L-61,64 L-42,52 L-23,40 L2,24 L17,14 L21,11 L7,4 L0,1 Z " fill="#110D26" transform="translate(821,524)"/>
<path d="M0,0 L5,0 L4,2 L-17,10 L-20,13 L-15,15 L0,25 L25,41 L50,57 L69,69 L90,82 L111,95 L132,108 L141,114 L136,119 L124,130 L116,137 L106,146 L96,155 L87,163 L18,163 L0,150 L-17,138 L-32,127 L-33,126 L-36,104 L-43,50 L-44,44 L-44,35 L-49,34 L-56,30 L-66,26 L-76,21 L-76,19 L-2,1 Z " fill="#110D26" transform="translate(432,523)"/>
<path d="M0,0 L7,1 L22,5 L37,8 L55,13 L67,15 L80,19 L111,26 L126,30 L136,32 L162,39 L157,44 L147,53 L139,60 L125,72 L111,85 L103,92 L90,104 L77,116 L65,127 L52,139 L39,151 L26,163 L13,175 L4,183 L2,183 L2,1 Z " fill="#6A3AD8" transform="translate(626,296)"/>
<path d="M0,0 L6,0 L7,183 L2,181 L-5,174 L-13,167 L-30,151 L-40,142 L-47,135 L-55,128 L-68,116 L-81,104 L-96,90 L-106,81 L-118,70 L-128,61 L-136,54 L-136,52 L-118,42 L-105,37 L-91,32 L-55,20 L-23,9 L-15,7 L-10,5 L-11,3 Z " fill="#412397" transform="translate(622,297)"/>
<path d="M0,0 L2,0 L1,8 L-3,18 L-11,44 L-17,63 L-23,81 L-27,94 L-39,131 L-43,144 L-47,158 L-54,180 L-61,203 L-67,222 L-71,232 L-74,231 L-79,226 L-83,224 L-92,213 L-102,202 L-111,191 L-121,180 L-128,172 L-140,158 L-143,154 L-141,150 L-131,139 L-124,131 L-112,117 L-103,107 L-94,96 L-83,84 L-76,76 L-65,63 L-55,52 L-48,43 L-37,30 L-30,22 L-14,10 Z " fill="#18113A" transform="translate(1044,161)"/>
<path d="M0,0 L5,5 L15,16 L22,24 L34,38 L47,53 L56,63 L61,69 L60,72 L28,93 L10,105 L-34,134 L-49,144 L-64,154 L-81,165 L-96,174 L-96,171 L-87,154 L-74,131 L-61,108 L-45,79 L-31,55 L-18,31 L-9,15 L-1,1 Z " fill="#3D2193" transform="translate(900,314)"/>
<path d="M0,0 L4,4 L20,33 L34,57 L47,81 L61,105 L74,129 L87,152 L98,172 L95,173 L87,167 L73,157 L54,144 L31,128 L11,114 L-3,105 L-28,90 L-47,79 L-59,71 L-57,66 L-48,56 L-39,45 L-29,34 L-20,23 L-9,11 Z " fill="#2A1768" transform="translate(354,314)"/>
<path d="M0,0 L4,2 L16,18 L28,34 L31,38 L30,42 L20,51 L8,62 L-2,71 L-9,78 L-17,85 L-33,101 L-41,108 L-52,119 L-61,116 L-77,108 L-105,92 L-120,83 L-122,79 L-103,66 L-80,51 L-61,39 L-39,25 L-22,14 Z " fill="#5C30C2" transform="translate(923,703)"/>
<path d="M0,0 L5,1 L25,13 L48,28 L67,40 L90,55 L112,69 L124,77 L124,81 L99,95 L78,107 L60,117 L55,116 L45,106 L37,99 L20,83 L13,76 L5,69 L-11,54 L-26,40 L-27,36 L-18,24 L-4,5 Z " fill="#592EBC" transform="translate(329,705)"/>
<path d="M0,0 L5,5 L18,22 L29,36 L38,48 L37,53 L20,96 L14,112 L2,143 L0,145 L-6,128 L-10,118 L-25,80 L-36,53 L-37,48 L-27,36 L-15,20 Z " fill="#8742F9" transform="translate(627,676)"/>
<path d="M0,0 L2,2 L7,14 L13,31 L18,41 L23,53 L23,55 L14,55 L-37,46 L-39,45 L-48,44 L-58,42 L-89,36 L-99,34 L-109,33 L-122,27 L-126,26 L-131,21 L-144,13 L-144,12 L-55,11 L-45,10 L-43,9 L-29,7 L-19,5 L-1,3 Z " fill="#24155A" transform="translate(580,759)"/>
<path d="M0,0 L6,1 L35,13 L45,17 L43,29 L43,42 L46,50 L53,62 L68,71 L83,71 L92,69 L98,66 L102,67 L110,73 L108,77 L91,94 L90,96 L75,96 L33,90 L6,63 L2,37 L1,33 L0,17 Z " fill="#8540F8" transform="translate(419,583)"/>
<path d="M0,0 L4,0 L4,22 L2,41 L-1,56 L-2,63 L-26,87 L-30,90 L-65,95 L-75,96 L-86,96 L-95,86 L-106,75 L-104,71 L-97,66 L-88,69 L-80,71 L-67,71 L-57,67 L-48,61 L-40,47 L-39,42 L-39,26 L-41,17 L-15,6 Z " fill="#8640F8" transform="translate(832,583)"/>
<path d="M0,0 L12,6 L35,19 L58,32 L85,47 L117,64 L124,68 L124,69 L116,69 L101,67 L86,64 L46,58 L36,56 L2,50 L-8,48 L-19,47 L-16,37 L-8,18 L-5,12 L-1,1 Z " fill="#D0C1BC" transform="translate(359,451)"/>
<path d="M0,0 L7,0 L6,2 L-1,5 L-13,8 L-51,21 L-84,32 L-100,38 L-117,47 L-120,48 L-116,82 L-112,106 L-109,119 L-107,135 L-109,135 L-113,126 L-132,86 L-151,45 L-166,12 L-163,12 L-148,26 L-140,33 L-128,30 L-109,24 L-89,21 L-75,17 L-38,9 L-23,5 Z " fill="#120E27" transform="translate(606,301)"/>
<path d="M0,0 L2,2 L0,2 L1,139 L2,143 L0,145 L-6,128 L-10,118 L-25,80 L-36,53 L-37,48 L-27,36 L-15,20 Z " fill="#6929E9" transform="translate(627,676)"/>
<path d="M0,0 L4,2 L13,9 L26,19 L44,33 L58,44 L72,55 L83,64 L95,73 L97,73 L96,76 L37,75 L29,60 L18,37 L5,11 Z " fill="#6637D4" transform="translate(927,495)"/>
<path d="M0,0 L2,0 L0,6 L-25,56 L-33,73 L-34,74 L-92,74 L-87,69 L-74,58 L-60,47 L-44,34 L-31,24 L-14,11 L-1,1 Z " fill="#6637D3" transform="translate(325,496)"/>
<path d="M0,0 L3,1 L-9,27 L-25,61 L-37,87 L-41,96 L-56,127 L-58,131 L-59,131 L-59,124 L-55,108 L-46,75 L-42,65 L-36,49 L-34,44 L-32,36 L-30,36 L-28,26 L-11,10 L-4,3 Z " fill="#0F0C26" transform="translate(814,311)"/>
<path d="M0,0 L7,6 L20,18 L31,28 L31,29 L23,29 L18,27 L1,24 L-18,19 L-27,16 L-40,13 L-40,11 L-47,11 L-53,8 L-62,7 L-63,11 L-68,9 L-72,7 L-73,3 L-36,2 L-25,1 Z " fill="#1B1047" transform="translate(317,758)"/>
<path d="M0,0 L2,0 L2,4 L4,4 L10,15 L19,30 L19,32 L37,32 L37,33 L14,34 L-14,39 L-11,30 L0,4 Z " fill="#D0C4C0" transform="translate(688,723)"/>
<path d="M0,0 L2,2 L15,33 L15,37 L2,36 L-15,33 L-17,32 L-15,27 L-2,4 Z " fill="#D1C4BF" transform="translate(565,724)"/>
<path d="M0,0 L1,3 L-1,10 L-3,10 L-5,22 L-9,32 L-15,48 L-17,49 L-14,19 L-13,12 Z " fill="#1F1253" transform="translate(785,337)"/>
<path d="M0,0 L3,1 L-9,15 L-19,26 L-26,34 L-38,48 L-47,58 L-56,69 L-67,81 L-71,85 L-70,81 L-61,71 L-52,60 L-42,49 L-33,38 L-24,28 L-15,17 L-6,7 Z " fill="#47279E" transform="translate(990,208)"/>
<path d="M0,0 L5,3 L13,22 L13,26 L0,25 L-4,22 L-1,22 Z " fill="#DDD2CE" transform="translate(567,735)"/>
<path d="M0,0 L7,0 L6,2 L-1,5 L-13,8 L-36,16 L-39,16 L-39,14 L-36,14 L-35,10 L-38,9 L-23,5 Z " fill="#221D37" transform="translate(606,301)"/>
</svg>
